<?xml version="1.0" standalone="yes"?><!DOCTYPE svg PUBLIC "-//W3C//DTD SVG 1.1//EN" "http://www.w3.org/Graphics/SVG/1.1/DTD/svg11.dtd"><svg width="700px" height="387px" xmlns="http://www.w3.org/2000/svg" xmlns:xlink="http://www.w3.org/1999/xlink" version="1.1"><defs></defs><rect width="100%" height="100%" fill="#fff" fill-opacity="0" stroke="none" /><path d="M 46 355.5 l 520 0 M 46.5 355 l 0 7 M 93.5 355 l 0 7 M 140.5 355 l 0 7 M 187.5 355 l 0 7 M 235.5 355 l 0 7 M 282.5 355 l 0 7 M 329.5 355 l 0 7 M 376.5 355 l 0 7 M 424.5 355 l 0 7 M 471.5 355 l 0 7 M 518.5 355 l 0 7 M 565.5 355 l 0 7 M 566.5 355 l 0 7" fill="none" stroke="#444" stroke-width="1" z-index="0" transform="matrix(1,0,0,1,0,0)" /><text x="41" y="373" font-size="12" font-family="Arial, Helvetica, sans-serif" fill="#444" transform="matrix(1,0,0,1,0,0)" ><tspan x="41" dy="3">0</tspan></text><text x="83" y="373" font-size="12" font-family="Arial, Helvetica, sans-serif" fill="#444" transform="matrix(1,0,0,1,0,0)" ><tspan x="83" dy="3">0.2</tspan></text><text x="130" y="373" font-size="12" font-family="Arial, Helvetica, sans-serif" fill="#444" transform="matrix(1,0,0,1,0,0)" ><tspan x="130" dy="3">0.4</tspan></text><text x="225" y="373" font-size="12" font-family="Arial, Helvetica, sans-serif" fill="#444" transform="matrix(1,0,0,1,0,0)" ><tspan x="225" dy="3">0.8</tspan></text><text x="277" y="373" font-size="12" font-family="Arial, Helvetica, sans-serif" fill="#444" transform="matrix(1,0,0,1,0,0)" ><tspan x="277" dy="3">1</tspan></text><text x="319" y="373" font-size="12" font-family="Arial, Helvetica, sans-serif" fill="#444" transform="matrix(1,0,0,1,0,0)" ><tspan x="319" dy="3">1.2</tspan></text><text x="366" y="373" font-size="12" font-family="Arial, Helvetica, sans-serif" fill="#444" transform="matrix(1,0,0,1,0,0)" ><tspan x="366" dy="3">1.4</tspan></text><text x="408" y="373" font-size="12" font-family="Arial, Helvetica, sans-serif" fill="#444" transform="matrix(1,0,0,1,0,0)" ><tspan x="408" dy="3">1.7999999999999998</tspan></text><text x="556" y="373" font-size="12" font-family="Arial, Helvetica, sans-serif" fill="#444" transform="matrix(1,0,0,1,0,0)" ><tspan x="556" dy="3">2.2</tspan></text><path d="M 93.5 354.5 l 0 -343 M 140.5 354.5 l 0 -343 M 187.5 354.5 l 0 -343 M 235.5 354.5 l 0 -343 M 282.5 354.5 l 0 -343 M 329.5 354.5 l 0 -343 M 376.5 354.5 l 0 -343 M 424.5 354.5 l 0 -343 M 471.5 354.5 l 0 -343 M 518.5 354.5 l 0 -343 M 565.5 354.5 l 0 -343" fill="none" stroke="#ccc" stroke-width="1" z-index="0" transform="matrix(1,0,0,1,0,0)" /><path d="M 46.5 355 l 0 -345 M 46 182.5 l -6 0" fill="none" stroke="#444" stroke-width="1" z-index="0" transform="matrix(1,0,0,1,0,0)" /><text x="8" y="182" font-size="12" font-family="Arial" text-anchor="middle" fill="#444" transform="matrix(1,0,0,1,0,0)" ><tspan x="8" dy="3">DTIJ</tspan></text><path d="M 46.5 182.5 l 518 0" fill="none" stroke="#ccc" stroke-width="1" z-index="0" transform="matrix(1,0,0,1,0,0)" /><rect x="46" y="21" width="472" height="325" fill="none" stroke="rgb(200,200,200)" stroke-opacity="0.05" stroke-width="6px" transform="matrix(1,0,0,1,1.2,1.2)" /><rect x="46" y="21" width="472" height="325" fill="none" stroke="rgb(150,150,150)" stroke-opacity="0.1" stroke-width="4px" transform="matrix(1,0,0,1,0.9,0.9)" /><rect x="46" y="21" width="472" height="325" fill="none" stroke="rgb(100,100,100)" stroke-opacity="0.15" stroke-width="2px" transform="matrix(1,0,0,1,0.6,0.6)" /><rect x="47" y="21" width="1" height="325" fill="rgb(148,174,10)" stroke-width="0px" transform="matrix(1,0,0,1,0,0)" /><rect x="47" y="21" width="237" height="325" fill="rgb(17,95,166)" stroke-width="0px" transform="matrix(1,0,0,1,0,0)" /><rect x="284" y="21" width="236" height="325" fill="rgb(166,17,32)" stroke-width="0px" transform="matrix(1,0,0,1,0,0)" /><rect x="520" y="21" width="0" height="325" fill="rgb(255,136,9)" stroke-width="0px" transform="matrix(1,0,0,1,0,0)" /><text font-size="16" font-family="Arial" text-anchor="middle" fill="#000" fill-opacity="0" transform="matrix(1,0,0,1,0,0)" ><tspan x="" dy="4">0</tspan></text><text x="271" y="183.5" font-size="16" font-family="Arial" text-anchor="middle" fill="#333" transform="matrix(1,0,0,1,0,0)" ><tspan x="271" dy="4">1</tspan></text><text x="507" y="183.5" font-size="16" font-family="Arial" text-anchor="middle" fill="#333" transform="matrix(1,0,0,1,0,0)" ><tspan x="507" dy="4">1</tspan></text><rect x="576.5" y="133.5" width="114" height="97" fill="#FFF" stroke="#000" stroke-width="1" transform="matrix(1,0,0,1,0,0)" /><text x="602" y="146" font-size="12" font-family="Helvetica, sans-serif" fill="#000" transform="matrix(1,0,0,1,0,0)" ><tspan x="602" dy="3">Cumplidas</tspan></text><rect x="0" y="0" width="12" height="12" fill="#94ae0a" transform="matrix(1,0,0,1,582,140)" /><text x="602" y="170" font-size="12" font-family="Helvetica, sans-serif" fill="#000" transform="matrix(1,0,0,1,0,0)" ><tspan x="602" dy="3">Pendiente</tspan></text><rect x="0" y="0" width="12" height="12" fill="#115fa6" transform="matrix(1,0,0,1,582,164)" /><text x="602" y="194" font-size="12" font-family="Helvetica, sans-serif" fill="#000" transform="matrix(1,0,0,1,0,0)" ><tspan x="602" dy="3">Ultimo_día</tspan></text><rect x="0" y="0" width="12" height="12" fill="#a61120" transform="matrix(1,0,0,1,582,188)" /><text x="602" y="218" font-size="12" font-family="Helvetica, sans-serif" fill="#000" transform="matrix(1,0,0,1,0,0)" ><tspan x="602" dy="3">Fuera_termino</tspan></text><rect x="0" y="0" width="12" height="12" fill="#ff8809" transform="matrix(1,0,0,1,582,212)" /></svg>