<?xml version="1.0" standalone="yes"?><!DOCTYPE svg PUBLIC "-//W3C//DTD SVG 1.1//EN" "http://www.w3.org/Graphics/SVG/1.1/DTD/svg11.dtd"><svg width="700px" height="387px" xmlns="http://www.w3.org/2000/svg" xmlns:xlink="http://www.w3.org/1999/xlink" version="1.1"><defs></defs><rect width="100%" height="100%" fill="#fff" fill-opacity="0" stroke="none" /><path d="M 54 355.5 l 515 0 M 54.5 355 l 0 7 M 139.5 355 l 0 7 M 225.5 355 l 0 7 M 311.5 355 l 0 7 M 397.5 355 l 0 7 M 483.5 355 l 0 7 M 569.5 355 l 0 7" fill="none" stroke="#444" stroke-width="1" z-index="0" transform="matrix(1,0,0,1,0,0)" /><text x="50" y="373" font-size="12" font-family="Arial, Helvetica, sans-serif" fill="#444" transform="matrix(1,0,0,1,0,0)" ><tspan x="50" dy="3">0</tspan></text><text x="135" y="373" font-size="12" font-family="Arial, Helvetica, sans-serif" fill="#444" transform="matrix(1,0,0,1,0,0)" ><tspan x="135" dy="3">2</tspan></text><text x="221" y="373" font-size="12" font-family="Arial, Helvetica, sans-serif" fill="#444" transform="matrix(1,0,0,1,0,0)" ><tspan x="221" dy="3">4</tspan></text><text x="307" y="373" font-size="12" font-family="Arial, Helvetica, sans-serif" fill="#444" transform="matrix(1,0,0,1,0,0)" ><tspan x="307" dy="3">6</tspan></text><text x="393" y="373" font-size="12" font-family="Arial, Helvetica, sans-serif" fill="#444" transform="matrix(1,0,0,1,0,0)" ><tspan x="393" dy="3">8</tspan></text><text x="476" y="373" font-size="12" font-family="Arial, Helvetica, sans-serif" fill="#444" transform="matrix(1,0,0,1,0,0)" ><tspan x="476" dy="3">10</tspan></text><text x="562" y="373" font-size="12" font-family="Arial, Helvetica, sans-serif" fill="#444" transform="matrix(1,0,0,1,0,0)" ><tspan x="562" dy="3">12</tspan></text><path d="M 139.5 354.5 l 0 -343 M 225.5 354.5 l 0 -343 M 311.5 354.5 l 0 -343 M 397.5 354.5 l 0 -343 M 483.5 354.5 l 0 -343" fill="none" stroke="#ccc" stroke-width="1" z-index="0" transform="matrix(1,0,0,1,0,0)" /><path d="M 54.5 355 l 0 -345 M 54 309.5 l -6 0 M 54 182.5 l -6 0 M 54 56.5 l -6 0" fill="none" stroke="#444" stroke-width="1" z-index="0" transform="matrix(1,0,0,1,0,0)" /><text x="20" y="309" font-size="12" font-family="Arial" text-anchor="middle" fill="#444" transform="matrix(1,0,0,1,0,0)" ><tspan x="20" dy="3">DLS</tspan></text><text x="8" y="182" font-size="12" font-family="Arial" text-anchor="middle" fill="#444" transform="matrix(1,0,0,1,0,0)" ><tspan x="8" dy="3">DDOR</tspan></text><text x="20" y="56" font-size="12" font-family="Arial" text-anchor="middle" fill="#444" transform="matrix(1,0,0,1,0,0)" ><tspan x="20" dy="3">DTP</tspan></text><path d="M 54.5 309.5 l 513 0 M 54.5 182.5 l 513 0 M 54.5 56.5 l 513 0" fill="none" stroke="#ccc" stroke-width="1" z-index="0" transform="matrix(1,0,0,1,0,0)" /><rect x="54" y="275" width="473" height="70" fill="none" stroke="rgb(200,200,200)" stroke-opacity="0.05" stroke-width="6px" transform="matrix(1,0,0,1,1.2,1.2)" /><rect x="54" y="275" width="473" height="70" fill="none" stroke="rgb(150,150,150)" stroke-opacity="0.1" stroke-width="4px" transform="matrix(1,0,0,1,0.9,0.9)" /><rect x="54" y="275" width="473" height="70" fill="none" stroke="rgb(100,100,100)" stroke-opacity="0.15" stroke-width="2px" transform="matrix(1,0,0,1,0.6,0.6)" /><rect x="55" y="275" width="1" height="70" fill="rgb(148,174,10)" stroke-width="0px" transform="matrix(1,0,0,1,0,0)" /><rect x="55" y="275" width="259" height="70" fill="rgb(17,95,166)" stroke-width="0px" transform="matrix(1,0,0,1,0,0)" /><rect x="314" y="275" width="43" height="70" fill="rgb(166,17,32)" stroke-width="0px" transform="matrix(1,0,0,1,0,0)" /><rect x="357" y="275" width="172" height="70" fill="rgb(255,136,9)" stroke-width="0px" transform="matrix(1,0,0,1,0,0)" /><rect x="54" y="148" width="516" height="70" fill="none" stroke="rgb(200,200,200)" stroke-opacity="0.05" stroke-width="6px" transform="matrix(1,0,0,1,1.2,1.2)" /><rect x="54" y="148" width="516" height="70" fill="none" stroke="rgb(150,150,150)" stroke-opacity="0.1" stroke-width="4px" transform="matrix(1,0,0,1,0.9,0.9)" /><rect x="54" y="148" width="516" height="70" fill="none" stroke="rgb(100,100,100)" stroke-opacity="0.15" stroke-width="2px" transform="matrix(1,0,0,1,0.6,0.6)" /><rect x="55" y="148" width="1" height="70" fill="rgb(148,174,10)" stroke-width="0px" transform="matrix(1,0,0,1,0,0)" /><rect x="55" y="148" width="259" height="70" fill="rgb(17,95,166)" stroke-width="0px" transform="matrix(1,0,0,1,0,0)" /><rect x="314" y="148" width="172" height="70" fill="rgb(166,17,32)" stroke-width="0px" transform="matrix(1,0,0,1,0,0)" /><rect x="486" y="148" width="86" height="70" fill="rgb(255,136,9)" stroke-width="0px" transform="matrix(1,0,0,1,0,0)" /><rect x="54" y="21" width="86" height="70" fill="none" stroke="rgb(200,200,200)" stroke-opacity="0.05" stroke-width="6px" transform="matrix(1,0,0,1,1.2,1.2)" /><rect x="54" y="21" width="86" height="70" fill="none" stroke="rgb(150,150,150)" stroke-opacity="0.1" stroke-width="4px" transform="matrix(1,0,0,1,0.9,0.9)" /><rect x="54" y="21" width="86" height="70" fill="none" stroke="rgb(100,100,100)" stroke-opacity="0.15" stroke-width="2px" transform="matrix(1,0,0,1,0.6,0.6)" /><rect x="55" y="21" width="1" height="70" fill="rgb(148,174,10)" stroke-width="0px" transform="matrix(1,0,0,1,0,0)" /><rect x="55" y="21" width="44" height="70" fill="rgb(17,95,166)" stroke-width="0px" transform="matrix(1,0,0,1,0,0)" /><rect x="99" y="21" width="43" height="70" fill="rgb(166,17,32)" stroke-width="0px" transform="matrix(1,0,0,1,0,0)" /><rect x="142" y="21" width="0" height="70" fill="rgb(255,136,9)" stroke-width="0px" transform="matrix(1,0,0,1,0,0)" /><text font-size="16" font-family="Arial" text-anchor="middle" fill="#000" fill-opacity="0" transform="matrix(1,0,0,1,0,0)" ><tspan x="" dy="4">0</tspan></text><text x="301" y="310.32608695652175" font-size="16" font-family="Arial" text-anchor="middle" fill="#333" transform="matrix(1,0,0,1,0,0)" ><tspan x="301" dy="4">6</tspan></text><text x="344" y="310.32608695652175" font-size="16" font-family="Arial" text-anchor="middle" fill="#333" transform="matrix(1,0,0,1,0,0)" ><tspan x="344" dy="4">1</tspan></text><text x="516" y="310.32608695652175" font-size="16" font-family="Arial" text-anchor="middle" fill="#333" transform="matrix(1,0,0,1,0,0)" ><tspan x="516" dy="4">4</tspan></text><text x="301" y="183.32608695652175" font-size="16" font-family="Arial" text-anchor="middle" fill="#333" transform="matrix(1,0,0,1,0,0)" ><tspan x="301" dy="4">6</tspan></text><text x="473" y="183.32608695652175" font-size="16" font-family="Arial" text-anchor="middle" fill="#333" transform="matrix(1,0,0,1,0,0)" ><tspan x="473" dy="4">4</tspan></text><text x="559" y="183.32608695652175" font-size="16" font-family="Arial" text-anchor="middle" fill="#333" transform="matrix(1,0,0,1,0,0)" ><tspan x="559" dy="4">2</tspan></text><text x="86" y="56.326086956521735" font-size="16" font-family="Arial" text-anchor="middle" fill="#333" transform="matrix(1,0,0,1,0,0)" ><tspan x="86" dy="4">1</tspan></text><text x="129" y="56.326086956521735" font-size="16" font-family="Arial" text-anchor="middle" fill="#333" transform="matrix(1,0,0,1,0,0)" ><tspan x="129" dy="4">1</tspan></text><rect x="579.5" y="129.5" width="111" height="105" fill="#FFF" stroke="#000" stroke-width="1" transform="matrix(1,0,0,1,0,0)" /><text x="605" y="143" font-size="12" font-family="Helvetica, sans-serif" fill="#000" transform="matrix(1,0,0,1,0,0)" ><tspan x="605" dy="3">Cumplidas</tspan></text><rect x="0" y="0" width="12" height="12" fill="#94ae0a" transform="matrix(1,0,0,1,585,137)" /><text x="605" y="169" font-size="12" font-family="Helvetica, sans-serif" fill="#000" transform="matrix(1,0,0,1,0,0)" ><tspan x="605" dy="3">Pendiente</tspan></text><rect x="0" y="0" width="12" height="12" fill="#115fa6" transform="matrix(1,0,0,1,585,163)" /><text x="605" y="195" font-size="12" font-family="Helvetica, sans-serif" fill="#000" transform="matrix(1,0,0,1,0,0)" ><tspan x="605" dy="3">Ultimo_día</tspan></text><rect x="0" y="0" width="12" height="12" fill="#a61120" transform="matrix(1,0,0,1,585,189)" /><text x="605" y="221" font-size="12" font-family="Helvetica, sans-serif" fill="#000" transform="matrix(1,0,0,1,0,0)" ><tspan x="605" dy="3">Fuera_termino</tspan></text><rect x="0" y="0" width="12" height="12" fill="#ff8809" transform="matrix(1,0,0,1,585,215)" /></svg>