<?xml version="1.0" standalone="yes"?><!DOCTYPE svg PUBLIC "-//W3C//DTD SVG 1.1//EN" "http://www.w3.org/Graphics/SVG/1.1/DTD/svg11.dtd"><svg width="500px" height="387px" xmlns="http://www.w3.org/2000/svg" xmlns:xlink="http://www.w3.org/1999/xlink" version="1.1"><defs><linearGradient x1="0" y1="0" x2="1" y2="0.9999999999999998" id="theme-94ae0a-6b7e07-1446504185319"><stop offset="0%" stop-color="#94ae0a" stop-opacity="1"></stop><stop offset="100%" stop-color="#6b7e07" stop-opacity="1"></stop></linearGradient><linearGradient x1="0" y1="0" x2="1" y2="0.9999999999999998" id="theme-115fa6-0c4578-1446504185319"><stop offset="0%" stop-color="#115fa6" stop-opacity="1"></stop><stop offset="100%" stop-color="#0c4578" stop-opacity="1"></stop></linearGradient><linearGradient x1="0" y1="0" x2="1" y2="0.9999999999999998" id="theme-a61120-780c17-1446504185319"><stop offset="0%" stop-color="#a61120" stop-opacity="1"></stop><stop offset="100%" stop-color="#780c17" stop-opacity="1"></stop></linearGradient><linearGradient x1="0" y1="0" x2="1" y2="0.9999999999999998" id="theme-ff8809-d56e00-1446504185319"><stop offset="0%" stop-color="#ff8809" stop-opacity="1"></stop><stop offset="100%" stop-color="#d56e00" stop-opacity="1"></stop></linearGradient><linearGradient x1="0" y1="0" x2="1" y2="0.9999999999999998" id="theme-ffd13e-ffc50b-1446504185319"><stop offset="0%" stop-color="#ffd13e" stop-opacity="1"></stop><stop offset="100%" stop-color="#ffc50b" stop-opacity="1"></stop></linearGradient><linearGradient x1="0" y1="0" x2="1" y2="0.9999999999999998" id="theme-a61187-780c61-1446504185319"><stop offset="0%" stop-color="#a61187" stop-opacity="1"></stop><stop offset="100%" stop-color="#780c61" stop-opacity="1"></stop></linearGradient><linearGradient x1="0" y1="0" x2="1" y2="0.9999999999999998" id="theme-24ad9a-1b8374-1446504185319"><stop offset="0%" stop-color="#24ad9a" stop-opacity="1"></stop><stop offset="100%" stop-color="#1b8374" stop-opacity="1"></stop></linearGradient><linearGradient x1="0" y1="0" x2="1" y2="0.9999999999999998" id="theme-7c7474-625b5b-1446504185319"><stop offset="0%" stop-color="#7c7474" stop-opacity="1"></stop><stop offset="100%" stop-color="#625b5b" stop-opacity="1"></stop></linearGradient><linearGradient x1="0" y1="0" x2="1" y2="0.9999999999999998" id="theme-a66111-78460c-1446504185319"><stop offset="0%" stop-color="#a66111" stop-opacity="1"></stop><stop offset="100%" stop-color="#78460c" stop-opacity="1"></stop></linearGradient></defs><rect width="100%" height="100%" fill="#fff" fill-opacity="0" stroke="none" /><path d="M 211.5 193.5L 233.61848082685182 11.33792160300709A 183.5 183.5 0 0 1 395 193.5L 395 193.5A 183.5 183.5 0 0 1 233.61848082685182 375.6620783969929L 233.61848082685182 375.6620783969929L 211.5 193.5Z" fill="none" stroke="rgb(200, 200, 200)" stroke-width="6" stroke-opacity="1" z-index="0" transform="matrix(1,0,0,1,1.2,2)" /><path d="M 211.5 193.5L 233.61848082685182 11.33792160300709A 183.5 183.5 0 0 1 395 193.5L 395 193.5A 183.5 183.5 0 0 1 233.61848082685182 375.6620783969929L 233.61848082685182 375.6620783969929L 211.5 193.5Z" fill="none" stroke="rgb(150, 150, 150)" stroke-width="4" stroke-opacity="1" z-index="0" transform="matrix(1,0,0,1,0.9,1.5)" /><path d="M 211.5 193.5L 233.61848082685182 11.33792160300709A 183.5 183.5 0 0 1 395 193.5L 395 193.5A 183.5 183.5 0 0 1 233.61848082685182 375.6620783969929L 233.61848082685182 375.6620783969929L 211.5 193.5Z" fill="none" stroke="rgb(100, 100, 100)" stroke-width="2" stroke-opacity="1" z-index="0" transform="matrix(1,0,0,1,0.6,1)" /><path d="M 211.5 193.5L 146.43000322769467 365.0754805327736A 183.5 183.5 0 0 1 33.33217650231947 149.58557560323308L 33.33217650231947 149.58557560323308A 183.5 183.5 0 0 1 233.61848082685182 11.33792160300709L 233.61848082685182 11.33792160300709L 211.5 193.5Z" fill="none" stroke="rgb(200, 200, 200)" stroke-width="6" stroke-opacity="1" z-index="0" transform="matrix(1,0,0,1,1.2,2)" /><path d="M 211.5 193.5L 146.43000322769467 365.0754805327736A 183.5 183.5 0 0 1 33.33217650231947 149.58557560323308L 33.33217650231947 149.58557560323308A 183.5 183.5 0 0 1 233.61848082685182 11.33792160300709L 233.61848082685182 11.33792160300709L 211.5 193.5Z" fill="none" stroke="rgb(150, 150, 150)" stroke-width="4" stroke-opacity="1" z-index="0" transform="matrix(1,0,0,1,0.9,1.5)" /><path d="M 211.5 193.5L 146.43000322769467 365.0754805327736A 183.5 183.5 0 0 1 33.33217650231947 149.58557560323308L 33.33217650231947 149.58557560323308A 183.5 183.5 0 0 1 233.61848082685182 11.33792160300709L 233.61848082685182 11.33792160300709L 211.5 193.5Z" fill="none" stroke="rgb(100, 100, 100)" stroke-width="2" stroke-opacity="1" z-index="0" transform="matrix(1,0,0,1,0.6,1)" /><path d="M 211.5 193.5L 233.61848082685165 375.6620783969929A 183.5 183.5 0 0 1 189.38151917314812 375.6620783969929L 189.38151917314812 375.6620783969929A 183.5 183.5 0 0 1 146.43000322769467 365.0754805327736L 146.43000322769467 365.0754805327736L 211.5 193.5Z" fill="none" stroke="rgb(200, 200, 200)" stroke-width="6" stroke-opacity="1" z-index="0" transform="matrix(1,0,0,1,1.2,2)" /><path d="M 211.5 193.5L 233.61848082685165 375.6620783969929A 183.5 183.5 0 0 1 189.38151917314812 375.6620783969929L 189.38151917314812 375.6620783969929A 183.5 183.5 0 0 1 146.43000322769467 365.0754805327736L 146.43000322769467 365.0754805327736L 211.5 193.5Z" fill="none" stroke="rgb(150, 150, 150)" stroke-width="4" stroke-opacity="1" z-index="0" transform="matrix(1,0,0,1,0.9,1.5)" /><path d="M 211.5 193.5L 233.61848082685165 375.6620783969929A 183.5 183.5 0 0 1 189.38151917314812 375.6620783969929L 189.38151917314812 375.6620783969929A 183.5 183.5 0 0 1 146.43000322769467 365.0754805327736L 146.43000322769467 365.0754805327736L 211.5 193.5Z" fill="none" stroke="rgb(100, 100, 100)" stroke-width="2" stroke-opacity="1" z-index="0" transform="matrix(1,0,0,1,0.6,1)" /><path d="M 211.5 193.5L 233.61848082685182 11.33792160300709A 183.5 183.5 0 0 1 395 193.5L 395 193.5A 183.5 183.5 0 0 1 233.61848082685182 375.6620783969929L 233.61848082685182 375.6620783969929L 211.5 193.5Z" fill="url(#theme-94ae0a-6b7e07-1446504185319)" stroke-width="0px" z-index="0" transform="matrix(1,0,0,1,0,0)" /><path d="M 211.5 193.5L 146.43000322769467 365.0754805327736A 183.5 183.5 0 0 1 33.33217650231947 149.58557560323308L 33.33217650231947 149.58557560323308A 183.5 183.5 0 0 1 233.61848082685182 11.33792160300709L 233.61848082685182 11.33792160300709L 211.5 193.5Z" fill="url(#theme-115fa6-0c4578-1446504185319)" stroke-width="0px" z-index="0" transform="matrix(1,0,0,1,0,0)" /><path d="M 211.5 193.5L 233.61848082685165 375.6620783969929A 183.5 183.5 0 0 1 189.38151917314812 375.6620783969929L 189.38151917314812 375.6620783969929A 183.5 183.5 0 0 1 146.43000322769467 365.0754805327736L 146.43000322769467 365.0754805327736L 211.5 193.5Z" fill="url(#theme-a61120-780c17-1446504185319)" stroke-width="0px" z-index="0" transform="matrix(1,0,0,1,0,0)" /><text x="303.25" y="193.5" font-size="18" font-family="Arial" text-anchor="middle" fill="#333333" transform="matrix(1,0,0,1,0,0)" ><tspan x="303.25" dy="4.5">DLS</tspan></text><text x="122.41608825115974" y="171.54278780161656" font-size="18" font-family="Arial" text-anchor="middle" fill="#cccccc" transform="matrix(0.9709,0.2393,-0.2393,0.9709,44.6101,-24.3114)" ><tspan x="122.41608825115974" dy="4.5">DDOR</tspan></text><text x="200.44075958657407" y="284.58103919849646" font-size="18" font-family="Arial" text-anchor="middle" fill="#cccccc" transform="matrix(0.1205,-0.9927,0.9927,0.1205,-106.2258,449.2579)" ><tspan x="200.44075958657407" dy="4.5">DTP</tspan></text><rect x="423.5" y="153.5" width="67" height="79" fill="#FFF" stroke="#000" stroke-width="1" transform="matrix(1,0,0,1,0,0)" /><text x="449" y="167" font-size="12" font-family="Helvetica, sans-serif" fill="#000" transform="matrix(1,0,0,1,0,0)" ><tspan x="449" dy="3">DLS</tspan></text><rect x="0" y="0" width="12" height="12" fill="url(#theme-94ae0a-6b7e07-1446504185319)" transform="matrix(1,0,0,1,429,161)" /><text x="449" y="193" font-size="12" font-family="Helvetica, sans-serif" fill="#000" transform="matrix(1,0,0,1,0,0)" ><tspan x="449" dy="3">DDOR</tspan></text><rect x="0" y="0" width="12" height="12" fill="url(#theme-115fa6-0c4578-1446504185319)" transform="matrix(1,0,0,1,429,187)" /><text x="449" y="219" font-size="12" font-family="Helvetica, sans-serif" fill="#000" transform="matrix(1,0,0,1,0,0)" ><tspan x="449" dy="3">DTP</tspan></text><rect x="0" y="0" width="12" height="12" fill="url(#theme-a61120-780c17-1446504185319)" transform="matrix(1,0,0,1,429,213)" /></svg>